# xmcd
#
# Track frame offsets: 
#        150
#        32285
#        60725
#        73860
#        94000
#        145320
#        182590
#        203885
#        223805
#        261712
#
# Disc length: 3579 seconds
#
# Revision: 0
# Processed by: cddbd v1.5.2PL0 Copyright (c) Steve Scherf et al.
# Submitted via: ExactAudioCopy v0.95a4
#
DISCID=9c0df90a
DTITLE=Todd Wolfe - Life From Manny's Car Wash
DYEAR=1999
DGENRE=Blues
TTITLE0=I Can't Quit U
TTITLE1=Evil
TTITLE2=Stop Messin' Round
TTITLE3=On The Run
TTITLE4=Same Thing
TTITLE5=Wreck My Life
TTITLE6=4 Walls
TTITLE7=Homework
TTITLE8=Eyesight
TTITLE9=I Can't Quit U
EXTD=
EXTT0=
EXTT1=
EXTT2=
EXTT3=
EXTT4=
EXTT5=
EXTT6=
EXTT7=
EXTT8=
EXTT9=
PLAYORDER=
